<?xml version="1.0" encoding="UTF-8" standalone="no"?>
<!-- Created with Inkscape (http://www.inkscape.org/) -->

<svg
   xmlns:dc="http://purl.org/dc/elements/1.1/"
   xmlns:cc="http://creativecommons.org/ns#"
   xmlns:rdf="http://www.w3.org/1999/02/22-rdf-syntax-ns#"
   xmlns:svg="http://www.w3.org/2000/svg"
   xmlns="http://www.w3.org/2000/svg"
   xmlns:sodipodi="http://sodipodi.sourceforge.net/DTD/sodipodi-0.dtd"
   xmlns:inkscape="http://www.inkscape.org/namespaces/inkscape"
   width="127.47762mm"
   height="117.32847mm"
   viewBox="0 0 127.47762 117.32847"
   version="1.1"
   id="svg8"
   inkscape:version="0.92.5 (2060ec1f9f, 2020-04-08)"
   sodipodi:docname="sphinx_collections_chart.svg">
  <defs
     id="defs2" />
  <sodipodi:namedview
     id="base"
     pagecolor="#ffffff"
     bordercolor="#666666"
     borderopacity="1.0"
     inkscape:pageopacity="0.0"
     inkscape:pageshadow="2"
     inkscape:zoom="0.98994949"
     inkscape:cx="175.13799"
     inkscape:cy="257.07764"
     inkscape:document-units="mm"
     inkscape:current-layer="layer1"
     showgrid="false"
     inkscape:window-width="2560"
     inkscape:window-height="1388"
     inkscape:window-x="1920"
     inkscape:window-y="0"
     inkscape:window-maximized="1"
     fit-margin-top="0"
     fit-margin-left="0"
     fit-margin-right="0"
     fit-margin-bottom="0" />
  <metadata
     id="metadata5">
    <rdf:RDF>
      <cc:Work
         rdf:about="">
        <dc:format>image/svg+xml</dc:format>
        <dc:type
           rdf:resource="http://purl.org/dc/dcmitype/StillImage" />
        <dc:title></dc:title>
      </cc:Work>
    </rdf:RDF>
  </metadata>
  <g
     inkscape:label="Layer 1"
     inkscape:groupmode="layer"
     id="layer1"
     transform="translate(-44.753813,-142.18433)">
    <circle
       cy="207.74274"
       cx="108.77869"
       id="path1284"
       style="fill:#eeeeee;fill-opacity:1;stroke:#aaaaaa;stroke-width:0.89999998;stroke-miterlimit:4;stroke-dasharray:none;stroke-dashoffset:0;stroke-opacity:1"
       r="49.311226" />
    <text
       xml:space="preserve"
       style="font-style:normal;font-variant:normal;font-weight:bold;font-stretch:normal;font-size:7.57519722px;line-height:1.25;font-family:sans-serif;-inkscape-font-specification:'sans-serif, Bold';font-variant-ligatures:normal;font-variant-caps:normal;font-variant-numeric:normal;font-feature-settings:normal;text-align:center;letter-spacing:0px;word-spacing:0px;writing-mode:lr-tb;text-anchor:middle;fill:#333333;fill-opacity:1;stroke:none;stroke-width:0.26458332"
       x="102.63705"
       y="207.89325"
       id="text845-0-1-0-6-8-4"
       transform="matrix(1.0444819,-0.00713372,0.00653875,0.95736781,0,0)"><tspan
         id="tspan1096-8-3-5-8"
         sodipodi:role="line"
         x="102.63705"
         y="207.89325"
         style="font-style:normal;font-variant:normal;font-weight:bold;font-stretch:normal;font-size:7.57519722px;font-family:sans-serif;-inkscape-font-specification:'sans-serif, Bold';font-variant-ligatures:normal;font-variant-caps:normal;font-variant-numeric:normal;font-feature-settings:normal;text-align:center;writing-mode:lr-tb;text-anchor:middle;fill:#333333;stroke-width:0.26458332">Sphinx</tspan><tspan
         sodipodi:role="line"
         x="102.63705"
         y="221.8965"
         style="font-style:normal;font-variant:normal;font-weight:bold;font-stretch:normal;font-size:12.69999981px;font-family:sans-serif;-inkscape-font-specification:'sans-serif, Bold';font-variant-ligatures:normal;font-variant-caps:normal;font-variant-numeric:normal;font-feature-settings:normal;text-align:center;writing-mode:lr-tb;text-anchor:middle;fill:#333333;stroke-width:0.26458332"
         id="tspan1304">Source</tspan><tspan
         sodipodi:role="line"
         x="102.63705"
         y="233.23724"
         style="font-style:normal;font-variant:normal;font-weight:bold;font-stretch:normal;font-size:7.57519722px;font-family:sans-serif;-inkscape-font-specification:'sans-serif, Bold';font-variant-ligatures:normal;font-variant-caps:normal;font-variant-numeric:normal;font-feature-settings:normal;text-align:center;writing-mode:lr-tb;text-anchor:middle;fill:#333333;stroke-width:0.26458332"
         id="tspan1306">Folder</tspan></text>
    <g
       id="g1373"
       transform="translate(48.790363,134.31372)">
      <g
         transform="matrix(0.13877493,0,0,0.13905362,57.317625,12.441487)"
         id="g934"
         style="stroke-width:7.19868803">
        <path
           id="rect839"
           style="fill:#ff6600;fill-opacity:1;stroke:#ff6600;stroke-width:7.19868803;stroke-miterlimit:4;stroke-dasharray:none;stroke-dashoffset:0;stroke-opacity:1"
           d="m -248.64284,78.257865 h 135.77292 v 54.790245 h -135.77292 z m 10.90201,99.974625 c -0.98957,-0.24641 -2.73182,-1.41596 -3.37623,-2.26643 -1.45615,-1.92177 -1.37659,-0.89323 -1.51856,-19.63313 l -0.13229,-17.4625 -3.175,-0.13346 c -2.71797,-0.11425 -3.38448,-0.23375 -4.63021,-0.83022 -1.71259,-0.82 -2.83549,-1.81803 -3.85433,-3.42571 -1.44066,-2.27328 -1.42874,-2.03127 -1.43321,-29.09096 -0.005,-27.453931 -0.0359,-26.872311 1.57746,-29.217301 1.02712,-1.49287 2.19468,-2.45743 3.95281,-3.26555 1.19057,-0.54725 1.96362,-0.68068 4.56406,-0.78778 l 3.13071,-0.12894 v -26.64455 c 0,-29.0981 -0.0509,-28.09957 1.53469,-30.10155 0.43847,-0.55362 1.37387,-1.30111 2.07866,-1.66111 l 1.28144,-0.65453 40.56133,-0.0686 40.56133,-0.0687 1.77231,1.78844 c 1.84149,1.85825 3.30153,3.4868 8.1265,9.06448 1.57354,1.81901 3.59849,4.14073 4.49989,5.15937 0.9014,1.01865 3.76786,4.29287 6.36993,7.27604 2.60206,2.98318 4.85936,5.54303 5.01623,5.68855 0.15687,0.14552 0.98933,1.09802 1.84991,2.11666 0.86058,1.01865 2.48981,2.88013 3.62051,4.13663 1.1307,1.2565 2.23408,2.71119 2.45196,3.23265 0.32785,0.78464 0.39614,2.65454 0.39614,10.84587 v 9.89776 l 3.10886,0.11282 c 2.68916,0.0976 3.32316,0.21118 4.69635,0.84132 1.76631,0.81055 2.72418,1.61852 3.86055,3.2564 1.5921,2.29475 1.56381,1.76527 1.55928,29.181611 -0.005,27.47607 0.0273,26.89361 -1.60544,29.31859 -1.94704,2.89168 -4.30407,4.00693 -8.66729,4.10097 l -2.82002,0.0608 -0.13229,17.4625 c -0.10801,14.25786 -0.20001,17.58389 -0.5013,18.12396 -0.83839,1.50281 -1.96991,2.64332 -3.26058,3.28649 l -1.3691,0.68226 -54.78295,-0.0307 c -30.13062,-0.0169 -55.02107,-0.09 -55.31211,-0.16245 z m 108.81205,-23.60241 c 0.0539,-12.1937 -0.002,-15.50584 -0.26458,-15.67251 -0.38337,-0.24338 -106.04098,-0.30165 -106.67375,-0.0588 -0.375,0.14391 -0.41851,1.7624 -0.41851,15.56632 0,8.47315 0.0797,15.48539 0.17703,15.58275 0.0974,0.0974 24.23729,0.14698 53.64427,0.11025 l 53.46724,-0.0668 z m -99.02247,-24.88478 c 9.56489,-1.01387 15.42511,-5.72858 16.28271,-13.09987 0.40198,-3.45512 -0.56123,-7.51391 -2.29216,-9.65878 -2.3652,-2.93082 -4.88708,-4.48822 -12.06575,-7.451265 -5.43053,-2.241486 -6.92135,-3.547386 -6.92135,-6.062866 0,-1.59839 1.00628,-2.99283 2.71889,-3.76765 2.64006,-1.19442 9.24591,-0.74727 12.91089,0.87392 0.6791,0.3004 1.32319,0.45423 1.4313,0.34183 0.1941,-0.20178 2.35526,-7.97986 2.35526,-8.47664 0,-0.34992 -3.78667,-1.57513 -6.43384,-2.08173 -3.31137,-0.6337 -8.73392,-0.55541 -11.65034,0.16821 -6.80568,1.68862 -10.89666,5.34391 -12.20859,10.90835 -0.48977,2.07732 -0.49148,3.29507 -0.008,5.57766 0.52167,2.462006 1.31743,3.963301 3.13457,5.913781 2.38435,2.5593 3.98511,3.47025 11.7933,6.71132 4.19461,1.74112 5.79336,3.1667 6.04387,5.38924 0.40306,3.57593 -2.45239,5.71566 -7.62748,5.71566 -3.5253,0 -8.33722,-1.09028 -11.08643,-2.51195 -0.71501,-0.36975 -0.79683,-0.36366 -1.03259,0.0769 -0.23156,0.43267 -2.14548,8.03295 -2.14548,8.51981 0,0.51788 4.26183,1.88044 7.80521,2.49543 2.13742,0.37097 3.20079,0.48569 5.82083,0.62798 0.43656,0.0237 1.86531,-0.0705 3.175,-0.20931 z m 100.52272,-0.68718 c 2.65089,-0.39241 7.45239,-1.49375 8.55176,-1.96157 l 0.59532,-0.25332 v -12.70567 -12.70567 h -9.13485 -9.13484 l 0.0729,4.16719 0.0729,4.16718 3.70416,0.1323 3.70417,0.13229 v 5.00804 5.00805 l -0.79375,0.24906 c -1.25557,0.39397 -7.2126,0.35802 -8.86354,-0.0535 -6.36912,-1.58753 -10.30911,-6.71273 -10.74377,-13.97568 -0.29315,-4.89825 0.57428,-8.289381 2.92343,-11.428981 1.67978,-2.245 4.57463,-4.08558 7.72465,-4.91143 3.61359,-0.94739 10.34325,-0.68217 13.97568,0.55077 2.56309,0.86999 2.70652,0.8474 2.92757,-0.46096 0.10193,-0.6033 0.52911,-2.2997 0.9493,-3.76976 1.0607,-3.71095 1.06415,-3.69109 -0.75738,-4.35235 -3.60252,-1.30782 -10.08764,-2.00982 -14.79261,-1.60128 -14.09401,1.22381 -23.06934,9.33625 -24.44891,22.098371 -1.03442,9.56924 2.12487,17.59807 8.88058,22.56863 2.88904,2.12563 7.15107,3.72645 11.24479,4.22354 1.38245,0.16787 2.8112,0.3537 3.175,0.41295 1.18549,0.19309 7.47697,-0.13996 10.16751,-0.53822 z m -52.15223,-0.70488 c 0.19564,-0.47294 2.27721,-6.5749 4.6257,-13.55989 2.3485,-6.985 5.87358,-17.456041 7.83352,-23.268981 1.95995,-5.81295 3.50436,-10.66474 3.43203,-10.78177 -0.0723,-0.11703 -2.67029,-0.21278 -5.77325,-0.21278 h -5.64175 l -0.70201,2.3151 c -0.38611,1.27331 -1.04175,3.4462 -1.45698,4.82865 -0.41523,1.38244 -1.11673,3.70416 -1.55888,5.15937 -0.44214,1.45521 -1.46977,4.96755 -2.28362,7.805201 -0.81384,2.83766 -1.70819,5.93328 -1.98744,6.87917 -0.66271,2.24475 -2.39218,9.57855 -2.39218,10.14399 0,0.24164 -0.10995,0.43934 -0.24434,0.43934 -0.13439,0 -0.56295,-1.39898 -0.95237,-3.10885 -1.15602,-5.07594 -3.08996,-12.41101 -4.76107,-18.057811 -0.53831,-1.81901 -1.18939,-4.0812 -1.44683,-5.02708 -0.89702,-3.29577 -2.931,-10.19071 -3.18059,-10.78177 -0.24983,-0.59166 -0.28703,-0.59531 -6.06226,-0.59531 -3.196,0 -5.86076,0.0893 -5.92171,0.19843 -0.0609,0.10914 0.39428,1.74625 1.01162,3.63802 1.7452,5.34799 5.46824,16.926881 7.27376,22.621871 0.89964,2.83766 1.85541,5.81422 2.12392,6.61458 0.26851,0.80037 1.51229,4.64013 2.76394,8.53281 l 2.27574,7.07761 h 6.33467 6.33467 z m 50.65365,-64.426031 -0.07,-8.13594 -14.94896,-0.13229 c -15.91973,-0.14088 -15.5537,-0.10906 -16.43113,-1.42824 -0.30378,-0.45671 -0.39356,-3.63078 -0.5022,-17.75405 l -0.13229,-17.19792 -37.04167,-0.0725 c -20.37292,-0.0399 -37.30956,-0.008 -37.63698,0.0712 l -0.59531,0.14367 v 26.321 26.321 h 53.71424 53.71424 z"
           inkscape:connector-curvature="0" />
        <text
           xml:space="preserve"
           style="font-style:normal;font-variant:normal;font-weight:bold;font-stretch:normal;font-size:39.85683441px;line-height:1.25;font-family:sans-serif;-inkscape-font-specification:'sans-serif, Bold';font-variant-ligatures:normal;font-variant-caps:normal;font-variant-numeric:normal;font-feature-settings:normal;text-align:start;letter-spacing:0px;word-spacing:0px;writing-mode:lr-tb;text-anchor:start;fill:#000000;fill-opacity:1;stroke:none;stroke-width:1.90465271"
           x="-219.73061"
           y="118.13899"
           id="text845"><tspan
             sodipodi:role="line"
             id="tspan843"
             x="-219.73061"
             y="118.13899"
             style="font-style:normal;font-variant:normal;font-weight:bold;font-stretch:normal;font-size:39.85683441px;font-family:sans-serif;-inkscape-font-specification:'sans-serif, Bold';font-variant-ligatures:normal;font-variant-caps:normal;font-variant-numeric:normal;font-feature-settings:normal;text-align:start;writing-mode:lr-tb;text-anchor:start;fill:#ffffff;stroke-width:1.90465271">File</tspan></text>
      </g>
    </g>
    <g
       id="g1367"
       transform="translate(33.392575,130.39531)">
      <path
         inkscape:connector-curvature="0"
         id="path911"
         d="m 18.762086,62.662231 c -0.327011,-0.171589 -0.592938,-0.444072 -0.771393,-0.790405 l -0.137025,-0.265921 -0.01666,-6.232588 c -0.01693,-6.333311 -0.0045,-7.44566 0.08747,-7.834703 0.08623,-0.364736 0.458338,-0.780427 0.879921,-0.982983 l 0.245227,-0.117823 h 2.91858 2.918579 l 0.402562,0.181967 c 0.486842,0.220064 1.430506,0.721973 2.456311,1.306444 l 0.759796,0.432908 3.722819,0.02486 3.722821,0.02486 0.21874,0.113993 c 0.38624,0.201277 0.621639,0.435736 0.793597,0.790414 0.0921,0.189959 0.14991,0.430497 0.207342,0.862635 l 0.02293,0.172526 1.408969,0.01634 c 1.549244,0.01796 1.559098,0.01904 1.835285,0.201984 0.371626,0.246154 0.484471,0.750447 0.296308,1.324166 -0.03816,0.116345 -0.28272,0.774405 -0.543474,1.462355 -0.260753,0.687954 -0.606512,1.606658 -0.768353,2.041569 -2.19413,5.896234 -2.426386,6.504316 -2.563199,6.71087 -0.121077,0.18279 -0.36893,0.401364 -0.625328,0.551455 l -0.217939,0.127575 -8.511926,-9.92e-4 -8.511926,-9.92e-4 z m 0.144052,-2.350387 c 0.376597,-1.066802 1.206997,-3.452919 2.146488,-6.167837 0.776142,-2.242869 1.03406,-2.954542 1.165493,-3.215906 0.09903,-0.196945 0.268706,-0.369994 0.46573,-0.475006 l 0.169422,-0.0903 h 6.792482 6.792481 l -0.01206,-0.294734 c -0.01009,-0.246464 -0.02428,-0.318278 -0.08666,-0.438506 -0.08988,-0.173235 -0.254691,-0.343598 -0.411001,-0.42486 -0.176755,-0.09189 -0.61281,-0.102622 -4.265775,-0.104977 l -3.288122,-0.0021 -0.44996,-0.255443 C 26.903478,48.262452 26.376677,47.977868 25.208713,47.37499 l -0.454455,-0.234576 -2.780425,0.0081 c -3.127214,0.0092 -2.879447,-0.0094 -3.122277,0.23346 -0.226981,0.22698 -0.253658,0.309845 -0.279237,0.867348 -0.02745,0.598154 -0.03335,11.027445 -0.0069,12.116445 0.01047,0.430178 0.02859,0.771943 0.04028,0.759477 0.01169,-0.01245 0.146874,-0.378511 0.300407,-0.813421 z"
         style="fill:#5555ff;fill-opacity:1;stroke-width:1.00000012" />
      <g
         transform="matrix(0.13877493,0,0,0.13905362,57.317625,12.441487)"
         id="g938"
         style="stroke-width:7.19868803">
        <text
           transform="scale(1.0652418,0.93875399)"
           xml:space="preserve"
           style="font-style:normal;font-variant:normal;font-weight:bold;font-stretch:normal;font-size:31.32200813px;line-height:1.25;font-family:sans-serif;-inkscape-font-specification:'sans-serif, Bold';font-variant-ligatures:normal;font-variant-caps:normal;font-variant-numeric:normal;font-feature-settings:normal;text-align:start;letter-spacing:0px;word-spacing:0px;writing-mode:lr-tb;text-anchor:start;fill:#000000;fill-opacity:1;stroke:none;stroke-width:1.90465295"
           x="-238.80962"
           y="352.02344"
           id="text845-1"><tspan
             sodipodi:role="line"
             id="tspan843-7"
             x="-238.80962"
             y="352.02344"
             style="font-style:normal;font-variant:normal;font-weight:bold;font-stretch:normal;font-size:31.32200813px;font-family:sans-serif;-inkscape-font-specification:'sans-serif, Bold';font-variant-ligatures:normal;font-variant-caps:normal;font-variant-numeric:normal;font-feature-settings:normal;text-align:start;writing-mode:lr-tb;text-anchor:start;fill:#ffffff;stroke-width:1.90465295">Folder</tspan></text>
      </g>
    </g>
    <g
       id="g1315"
       transform="translate(60.135643,129.09118)">
      <path
         inkscape:connector-curvature="0"
         id="path858"
         d="M 73.025532,39.588949 C 69.56929,39.338065 66.72728,38.280436 66.115954,37.017607 65.944682,36.663806 65.92427,36.467824 65.92427,35.17728 v -1.444355 l 0.673435,0.338313 c 1.884257,0.946595 4.421303,1.386133 8.00089,1.386133 3.570103,0 6.123449,-0.442962 8.006599,-1.389001 l 0.679139,-0.34118 -0.02818,1.558103 -0.02818,1.558103 -0.269665,0.381473 c -0.715489,1.012131 -2.684742,1.831409 -5.273098,2.193786 -1.008215,0.141155 -3.703924,0.239672 -4.659683,0.170294 z m -0.02267,-5.264385 c -2.80754,-0.14003 -5.384884,-0.748242 -6.605765,-1.55886 L 65.92427,32.451761 v -1.617088 c 0,-0.889401 0.01513,-1.617092 0.03363,-1.617092 0.0185,0 0.217482,0.102761 0.442197,0.228356 0.977342,0.546246 2.942809,1.082474 4.827656,1.317105 1.249919,0.155594 5.683915,0.153243 6.831591,-0.0036 1.893041,-0.258743 3.793126,-0.785515 4.737765,-1.313484 0.224714,-0.125595 0.423704,-0.228356 0.442197,-0.228356 0.0185,0 0.03363,0.727692 0.03363,1.617092 v 1.617091 l -0.472827,0.31394 c -1.714444,1.138325 -5.655676,1.765426 -9.797229,1.558861 z M 72.411577,29.754597 C 70.315176,29.589871 68.264524,29.127058 67.002943,28.533913 65.876671,28.004385 65.92427,28.105841 65.92427,26.234794 v -1.603111 l 0.47192,0.265408 c 2.402109,1.350933 8.235108,1.866773 12.696878,1.122842 1.240836,-0.206891 2.757023,-0.651046 3.504799,-1.026706 l 0.675052,-0.339131 v 1.591903 c 0,1.537335 -0.0069,1.598104 -0.202249,1.772808 -0.746709,0.667908 -2.736274,1.298705 -5.056275,1.603105 -1.315549,0.172608 -4.219504,0.241378 -5.602818,0.132685 z m 0.430025,-4.496988 c -2.831157,-0.170777 -5.444196,-0.816832 -6.55329,-1.620255 -0.344637,-0.249657 -0.364042,-0.288517 -0.364042,-0.729159 0,-0.934728 0.615101,-1.661975 1.932625,-2.284982 1.905676,-0.901128 5.139153,-1.344875 8.237847,-1.13053 1.866662,0.129125 2.936901,0.311405 4.113467,0.700597 1.166089,0.38573 1.890833,0.767872 2.406176,1.268722 0.482461,0.468906 0.658534,0.859232 0.658534,1.459871 0,0.424654 -0.02183,0.467597 -0.364036,0.715481 -1.14477,0.829267 -3.666553,1.436425 -6.743223,1.62354 -1.601733,0.09741 -1.655608,0.09736 -3.324058,-0.0034 z"
         style="fill:#ff55dd;fill-opacity:1;stroke-width:1" />
      <text
         id="text867"
         y="24.208555"
         x="70.220261"
         style="font-style:normal;font-variant:normal;font-weight:bold;font-stretch:normal;font-size:5.24972582px;line-height:1.25;font-family:sans-serif;-inkscape-font-specification:'sans-serif, Bold';font-variant-ligatures:normal;font-variant-caps:normal;font-variant-numeric:normal;font-feature-settings:normal;text-align:start;letter-spacing:0px;word-spacing:0px;writing-mode:lr-tb;text-anchor:start;fill:#ffffff;fill-opacity:1;stroke:none;stroke-width:0.26458332"
         xml:space="preserve"><tspan
           style="font-style:normal;font-variant:normal;font-weight:bold;font-stretch:normal;font-size:5.24972582px;font-family:sans-serif;-inkscape-font-specification:'sans-serif, Bold';font-variant-ligatures:normal;font-variant-caps:normal;font-variant-numeric:normal;font-feature-settings:normal;text-align:start;writing-mode:lr-tb;text-anchor:start;fill:#ffffff;stroke-width:0.26458332"
           y="24.208555"
           x="70.220261"
           id="tspan865"
           sodipodi:role="line">Git</tspan></text>
    </g>
    <g
       id="g2466"
       transform="translate(-0.25652472,-2.9238476)">
      <path
         inkscape:connector-curvature="0"
         d="m 152.64899,214.42256 h 18.84188 v 7.61878 h -18.84188 z m 1.51292,13.90183 c -0.13733,-0.0343 -0.37911,-0.19689 -0.46854,-0.31515 -0.20207,-0.26723 -0.19103,-0.12421 -0.21073,-2.73006 l -0.0183,-2.42822 -0.44061,-0.0186 c -0.37719,-0.0159 -0.46969,-0.0325 -0.64256,-0.11545 -0.23767,-0.11402 -0.39349,-0.2528 -0.53488,-0.47636 -0.19993,-0.3161 -0.19828,-0.28245 -0.1989,-4.0452 -4.9e-4,-3.81757 -0.005,-3.73669 0.21891,-4.06277 0.14254,-0.20759 0.30457,-0.34172 0.54856,-0.45409 0.16522,-0.0761 0.2725,-0.0947 0.63337,-0.10954 l 0.43447,-0.0179 v -3.70502 c 0,-4.0462 -0.007,-3.90735 0.21298,-4.18573 0.0608,-0.077 0.19065,-0.18092 0.28846,-0.23098 l 0.17783,-0.091 5.62889,-0.01 5.6289,-0.01 0.24595,0.24869 c 0.25556,0.25839 0.45817,0.48485 1.12776,1.26044 0.21837,0.25294 0.49938,0.57579 0.62447,0.71743 0.1251,0.14165 0.52289,0.59694 0.88399,1.01176 0.3611,0.41482 0.67435,0.77078 0.69613,0.79102 0.0218,0.0202 0.13729,0.15268 0.25672,0.29433 0.11943,0.14164 0.34552,0.40049 0.50243,0.57521 0.15691,0.17472 0.31003,0.377 0.34027,0.44951 0.0455,0.10911 0.055,0.36912 0.055,1.50816 v 1.37632 l 0.43143,0.0157 c 0.37319,0.0136 0.46118,0.0294 0.65174,0.11699 0.24512,0.11271 0.37805,0.22506 0.53575,0.45281 0.22094,0.31909 0.21702,0.24547 0.21639,4.05781 -5e-4,3.82065 0.004,3.73965 -0.2228,4.07685 -0.2702,0.4021 -0.59729,0.55718 -1.2028,0.57026 l -0.39135,0.008 -0.0184,2.42822 c -0.015,1.98261 -0.0278,2.44511 -0.0696,2.5202 -0.11634,0.20898 -0.27338,0.36757 -0.45248,0.457 l -0.19,0.0949 -7.6025,-0.004 c -4.18138,-0.002 -7.63555,-0.0125 -7.67594,-0.0226 z m 15.10039,-3.28199 c 0.008,-1.69559 -2.8e-4,-2.15615 -0.0367,-2.17933 -0.0532,-0.0338 -14.71583,-0.042 -14.80364,-0.008 -0.052,0.02 -0.0581,0.24507 -0.0581,2.16456 0,1.17822 0.0111,2.1533 0.0246,2.16683 0.0135,0.0135 3.36352,0.0204 7.44448,0.0153 l 7.41991,-0.009 z m -13.74184,-3.46032 c 1.32737,-0.14099 2.14062,-0.79658 2.25963,-1.82159 0.0558,-0.48044 -0.0779,-1.04484 -0.31809,-1.34308 -0.32823,-0.40755 -0.67821,-0.62411 -1.67443,-1.03613 -0.75362,-0.31169 -0.9605,-0.49328 -0.9605,-0.84307 0,-0.22225 0.13964,-0.41616 0.37731,-0.5239 0.36637,-0.16609 1.2831,-0.10391 1.79171,0.12152 0.0942,0.0418 0.18362,0.0632 0.19863,0.0475 0.0269,-0.0281 0.32685,-1.10963 0.32685,-1.17871 0,-0.0487 -0.5255,-0.21903 -0.89286,-0.28947 -0.45954,-0.0881 -1.21205,-0.0772 -1.61678,0.0234 -0.94445,0.23481 -1.51218,0.74309 -1.69424,1.51684 -0.068,0.28887 -0.0682,0.4582 -9.9e-4,0.7756 0.0724,0.34235 0.18282,0.55111 0.435,0.82233 0.33088,0.35588 0.55303,0.48255 1.63661,0.93324 0.58211,0.2421 0.80397,0.44033 0.83874,0.74939 0.0559,0.49724 -0.34033,0.79478 -1.0585,0.79478 -0.48923,0 -1.157,-0.15161 -1.53852,-0.34929 -0.0992,-0.0514 -0.11058,-0.0506 -0.1433,0.0107 -0.0321,0.0602 -0.29774,1.11701 -0.29774,1.18471 0,0.072 0.59144,0.26148 1.08317,0.34699 0.29662,0.0516 0.44419,0.0675 0.80779,0.0873 0.0606,0.004 0.25885,-0.01 0.44061,-0.0291 z m 13.95003,-0.0956 c 0.36788,-0.0546 1.03421,-0.20771 1.18678,-0.27276 l 0.0826,-0.0352 v -1.76677 -1.76677 h -1.26769 -1.26768 l 0.0101,0.57946 0.0101,0.57946 0.51404,0.0184 0.51404,0.0184 v 0.69639 0.69639 l -0.11015,0.0346 c -0.17424,0.0548 -1.00092,0.0498 -1.23003,-0.007 -0.88388,-0.22076 -1.43065,-0.93343 -1.49097,-1.94337 -0.0407,-0.68112 0.0797,-1.15267 0.4057,-1.58924 0.23311,-0.31218 0.63484,-0.56812 1.07199,-0.68296 0.50147,-0.13173 1.43538,-0.0949 1.93947,0.0766 0.3557,0.12097 0.3756,0.11783 0.40627,-0.0641 0.0141,-0.0839 0.0734,-0.31978 0.13174,-0.5242 0.1472,-0.51601 0.14768,-0.51326 -0.1051,-0.60521 -0.49994,-0.18185 -1.39991,-0.27947 -2.05285,-0.22266 -1.95589,0.17018 -3.20144,1.29824 -3.39289,3.07286 -0.14355,1.33064 0.29487,2.44708 1.2324,3.13825 0.40093,0.29558 0.99239,0.51818 1.56049,0.5873 0.19186,0.0234 0.39013,0.0492 0.44062,0.0574 0.16451,0.0268 1.03761,-0.0195 1.411,-0.0748 z m -7.23742,-0.098 c 0.0271,-0.0658 0.31602,-0.91426 0.64194,-1.88555 0.32591,-0.97129 0.8151,-2.42733 1.08709,-3.23564 0.27199,-0.80831 0.48632,-1.48297 0.47628,-1.49925 -0.01,-0.0163 -0.37057,-0.0296 -0.80118,-0.0296 h -0.78294 l -0.0974,0.32193 c -0.0536,0.17705 -0.14456,0.4792 -0.20219,0.67144 -0.0576,0.19223 -0.15497,0.51507 -0.21633,0.71743 -0.0614,0.20235 -0.20397,0.69075 -0.31691,1.08533 -0.11294,0.39459 -0.23705,0.82505 -0.27581,0.95658 -0.092,0.31214 -0.33197,1.33193 -0.33197,1.41056 0,0.0336 -0.0153,0.0611 -0.0339,0.0611 -0.0187,0 -0.0781,-0.19454 -0.13217,-0.4323 -0.16042,-0.70583 -0.42881,-1.7258 -0.66071,-2.511 -0.0747,-0.25294 -0.16506,-0.56751 -0.20079,-0.69904 -0.12448,-0.45829 -0.40675,-1.41705 -0.44138,-1.49924 -0.0347,-0.0823 -0.0398,-0.0828 -0.8413,-0.0828 -0.44352,0 -0.81332,0.0124 -0.82178,0.0276 -0.008,0.0152 0.0547,0.24282 0.14039,0.50588 0.24219,0.74366 0.75886,2.35374 1.00941,3.14565 0.12485,0.39459 0.25749,0.80849 0.29475,0.91978 0.0373,0.1113 0.20987,0.64523 0.38357,1.18652 l 0.31581,0.98417 h 0.8791 0.87909 z m 7.02946,-8.95867 -0.01,-1.13134 -2.07454,-0.0184 c -2.20926,-0.0196 -2.15847,-0.0152 -2.28023,-0.19859 -0.0422,-0.0635 -0.0546,-0.50488 -0.0697,-2.46877 l -0.0183,-2.39143 -5.14046,-0.0101 c -2.82724,-0.006 -5.17763,-0.001 -5.22306,0.01 l -0.0826,0.02 v 3.66003 3.66002 h 7.45419 7.45419 z"
         style="fill:#ff6600;fill-opacity:1;stroke:#ff6600;stroke-width:1.00000012;stroke-miterlimit:4;stroke-dasharray:none;stroke-dashoffset:0;stroke-opacity:1"
         id="rect839-9-1" />
      <text
         transform="scale(1.1898625,0.84043325)"
         id="text845-0-1"
         y="258.37961"
         x="135.98282"
         style="font-style:normal;font-variant:normal;font-weight:bold;font-stretch:normal;font-size:4.33493328px;line-height:1.25;font-family:sans-serif;-inkscape-font-specification:'sans-serif, Bold';font-variant-ligatures:normal;font-variant-caps:normal;font-variant-numeric:normal;font-feature-settings:normal;text-align:center;letter-spacing:0px;word-spacing:0px;writing-mode:lr-tb;text-anchor:middle;fill:#000000;fill-opacity:1;stroke:none;stroke-width:0.26458335"
         xml:space="preserve"><tspan
           style="font-style:normal;font-variant:normal;font-weight:bold;font-stretch:normal;font-size:4.33493328px;font-family:sans-serif;-inkscape-font-specification:'sans-serif, Bold';font-variant-ligatures:normal;font-variant-caps:normal;font-variant-numeric:normal;font-feature-settings:normal;text-align:center;writing-mode:lr-tb;text-anchor:middle;fill:#ffffff;stroke-width:0.26458335"
           y="258.37961"
           x="135.98282"
           id="tspan843-9-5"
           sodipodi:role="line">Jinja</tspan><tspan
           style="font-style:normal;font-variant:normal;font-weight:bold;font-stretch:normal;font-size:4.33493328px;font-family:sans-serif;-inkscape-font-specification:'sans-serif, Bold';font-variant-ligatures:normal;font-variant-caps:normal;font-variant-numeric:normal;font-feature-settings:normal;text-align:center;writing-mode:lr-tb;text-anchor:middle;fill:#ffffff;stroke-width:0.26458335"
           y="263.79828"
           x="135.98282"
           sodipodi:role="line"
           id="tspan1096">list</tspan></text>
    </g>
    <path
       sodipodi:nodetypes="ccccscsccccccccscscccccsccccscscccccsccscsscscccssccssccccssccsccccccccscccscccscsccscccccscccccccscscscccccc"
       inkscape:connector-curvature="0"
       id="path1109"
       d="m 131.01053,259.42464 c -0.60792,-0.18623 -1.1741,-0.67647 -1.4287,-1.23709 -0.23219,-0.51127 -0.24445,-1.10503 -0.2472,-11.96827 l -0.003,-11.43032 0.3002,-0.57843 c 0.23034,-0.44381 0.46489,-0.66242 1.00786,-0.93934 0.65787,-0.33553 0.82068,-0.36092 2.31396,-0.36092 h 1.6063 l 0.26413,-0.42654 c 0.42061,-0.67925 0.97769,-0.92812 2.22397,-0.99353 1.09241,-0.0573 1.09541,-0.0585 1.64342,-0.62811 1.05367,-1.09521 2.38957,-1.09131 3.45025,0.0101 0.53834,0.559 0.53992,0.55959 1.66291,0.61853 1.23815,0.065 1.83718,0.34456 2.25547,1.05266 l 0.21674,0.36692 h 1.60958 c 1.49687,0 1.65915,0.0253 2.31725,0.36092 0.54296,0.27693 0.77752,0.49553 1.00786,0.93935 l 0.3002,0.57842 -0.003,11.43032 c -0.003,10.9452 -0.0135,11.45363 -0.25219,11.97942 -0.15683,0.34542 -0.45643,0.68621 -0.80771,0.9187 l -0.5584,0.36961 -9.26233,0.0233 c -5.09427,0.0128 -9.42229,-0.0257 -9.61781,-0.0856 z m 18.52805,-2.09452 c 0.18842,-0.35207 0.18842,-21.84528 0,-22.19734 -0.12207,-0.22809 -0.28705,-0.25387 -1.62476,-0.25387 h -1.48891 l -0.0552,0.76324 c -0.0677,0.93529 -0.41449,1.47017 -1.19988,1.85036 -0.53749,0.2602 -0.77305,0.27361 -4.75665,0.27087 -3.80333,-0.002 -4.24094,-0.0255 -4.72911,-0.24719 -0.7594,-0.34488 -1.14247,-0.93809 -1.21017,-1.87404 l -0.0552,-0.76324 h -1.4889 c -1.33772,0 -1.5027,0.0258 -1.62477,0.25387 -0.18842,0.35206 -0.18842,21.84527 0,22.19734 0.1323,0.24718 0.37194,0.25386 9.11678,0.25386 8.74486,0 8.98449,-0.007 9.11679,-0.25386 z m -6.4263,-5.27121 c -2.14227,-0.41837 -3.87735,-2.26414 -4.18259,-4.44941 -0.32709,-2.34166 0.82084,-4.48082 2.97309,-5.54037 0.8222,-0.40477 0.96066,-0.43119 2.25945,-0.43119 1.29429,0 1.4392,0.0274 2.24563,0.42439 1.05708,0.5204 2.09681,1.5799 2.57765,2.62666 0.49245,1.07205 0.56756,2.69295 0.17876,3.85796 -0.56966,1.70695 -2.05061,3.04761 -3.80807,3.44734 -1.00346,0.22823 -1.35441,0.23834 -2.24392,0.0646 z m 2.36238,-2.09734 c 0.32483,-0.14687 0.78771,-0.45563 1.02863,-0.68614 0.47401,-0.45352 0.97933,-1.32038 0.8469,-1.45281 -0.045,-0.045 -0.88303,-0.0819 -1.86225,-0.0819 h -1.78037 l -1.27596,-1.27117 -1.27595,-1.27116 -0.16603,0.38527 c -0.27299,0.63342 -0.21022,2.13531 0.11483,2.74766 0.61388,1.15648 1.80777,1.89726 3.05777,1.89726 0.44492,0 0.94841,-0.10244 1.31244,-0.26703 z m 1.61592,-4.73713 c -0.80173,-1.47462 -2.60244,-2.1368 -4.1522,-1.5269 l -0.37076,0.14591 1.02391,1.02995 1.0239,1.02994 h 1.42213 1.42213 z m -14.60899,1.5976 c -0.33788,-0.33787 -0.33556,-0.92202 0.005,-1.28768 0.25788,-0.27681 0.36195,-0.28723 2.867,-0.28723 2.30929,0 2.62251,0.0257 2.80639,0.22967 0.3662,0.40635 0.4005,0.86294 0.0941,1.25249 l -0.27942,0.35524 h -2.61534 c -2.44035,0 -2.6329,-0.0176 -2.87783,-0.26249 z m 0,-2.88735 c -0.14583,-0.14582 -0.26249,-0.43747 -0.26249,-0.65621 0,-0.21874 0.11666,-0.51039 0.26249,-0.65622 0.24485,-0.24485 0.43748,-0.26249 2.86701,-0.26249 2.44341,0 2.6193,0.0163 2.8436,0.26418 0.30652,0.33871 0.30652,0.97034 0,1.30905 -0.2243,0.24783 -0.40019,0.26418 -2.8436,0.26418 -2.42953,0 -2.62216,-0.0177 -2.86701,-0.26249 z m 0.0229,-2.92862 c -0.3566,-0.37958 -0.36646,-0.92758 -0.0229,-1.27116 0.25119,-0.25119 0.43605,-0.2624 4.29821,-0.26048 2.21965,10e-4 4.10071,0.0454 4.18014,0.0984 0.19712,0.13163 0.44618,0.62353 0.44618,0.88122 0,0.11631 -0.14497,0.35643 -0.32214,0.5336 l -0.32214,0.32215 h -3.98601 -3.986 z m 11.98587,-6.38964 v -1.11557 l -1.53767,-0.0656 c -1.69607,-0.0724 -1.83935,-0.13699 -2.03743,-0.9187 -0.0992,-0.39137 -0.1722,-0.45935 -0.49344,-0.45935 -0.32124,0 -0.39427,0.068 -0.49344,0.45935 -0.19809,0.78171 -0.34137,0.84632 -2.03743,0.9187 l -1.53767,0.0656 -0.039,0.97204 c -0.0214,0.53463 -0.008,1.05225 0.0294,1.15028 0.056,0.14587 0.80196,0.17193 4.10751,0.14353 l 4.03912,-0.0347 z"
       style="fill:#aad400;fill-opacity:1;stroke-width:1" />
    <rect
       rx="0"
       ry="0"
       y="252.81573"
       x="130.37509"
       height="5.4449553"
       width="19.780638"
       id="rect1111"
       style="fill:#aad400;fill-opacity:1;stroke:none;stroke-width:1;stroke-miterlimit:4;stroke-dasharray:none;stroke-dashoffset:0" />
    <text
       xml:space="preserve"
       style="font-style:normal;font-variant:normal;font-weight:bold;font-stretch:normal;font-size:5.04108429px;line-height:1.25;font-family:sans-serif;-inkscape-font-specification:'sans-serif, Bold';font-variant-ligatures:normal;font-variant-caps:normal;font-variant-numeric:normal;font-feature-settings:normal;text-align:start;letter-spacing:0px;word-spacing:0px;writing-mode:lr-tb;text-anchor:start;fill:#000000;fill-opacity:1;stroke:none;stroke-width:0.26458335"
       x="135.61801"
       y="249.07359"
       id="text845-0-1-0"
       transform="scale(0.96721107,1.0339005)"><tspan
         id="tspan1096-8"
         sodipodi:role="line"
         x="135.61801"
         y="249.07359"
         style="font-style:normal;font-variant:normal;font-weight:bold;font-stretch:normal;font-size:5.04108429px;font-family:sans-serif;-inkscape-font-specification:'sans-serif, Bold';font-variant-ligatures:normal;font-variant-caps:normal;font-variant-numeric:normal;font-feature-settings:normal;text-align:start;writing-mode:lr-tb;text-anchor:start;fill:#ffffff;stroke-width:0.26458335">Report</tspan></text>
    <g
       id="g1389"
       transform="translate(5.9867026,-11.246808)">
      <path
         sodipodi:nodetypes="ccccsccccccsccsccccccccccccccccccccsccccccccc"
         inkscape:connector-curvature="0"
         id="path1160"
         d="m 97.488061,175.07013 c -1.531049,-0.37281 -2.718656,-1.59931 -3.043843,-3.1435 -0.148624,-0.70578 -0.149236,-10.3855 -7.44e-4,-11.09546 0.241998,-1.15667 1.195341,-2.3639 2.244146,-2.8418 0.788447,-0.35926 1.55739,-0.43476 4.43601,-0.43555 l 2.66574,-4.9e-4 -1.25803,1.26083 -1.25803,1.26082 -1.553192,0.002 c -1.764669,0.002 -2.167776,0.11014 -2.581147,0.68973 l -0.232872,0.32651 v 5.30293 c 0,5.20463 0.0037,5.30788 0.199965,5.57075 0.109981,0.14731 0.320491,0.35782 0.467799,0.4678 0.262871,0.19626 0.366121,0.19996 5.570757,0.19996 h 5.30292 l 0.32651,-0.23286 c 0.57959,-0.41338 0.68731,-0.81649 0.68973,-2.58115 l 0.002,-1.55319 1.26082,-1.25803 1.26084,-1.25804 -0.002,2.61725 c -0.002,2.88715 -0.0821,3.71757 -0.43189,4.48149 -0.50009,1.09234 -1.7232,2.02828 -2.94973,2.25719 -0.78214,0.14597 -10.497349,0.11356 -11.116008,-0.0371 z m 3.741359,-3.44978 c -0.60227,-0.30217 -0.90506,-0.34684 -2.152808,-1.62656 -1.024801,-1.05107 -1.249865,-1.33645 -1.392389,-1.76555 -0.202842,-0.61071 -0.166251,-1.33619 0.09572,-1.89783 0.113481,-0.2433 4.974957,-4.99684 6.513167,-6.54996 l 2.45273,-2.4765 -1.59919,-1.59695 c -0.87955,-0.87832 -1.62498,-1.67819 -1.65651,-1.77749 -0.0332,-0.10452 0.01,-0.24745 0.10161,-0.33945 0.14366,-0.14365 0.71061,-0.15892 5.90192,-0.15892 4.92749,0 5.78419,0.0208 6.03307,0.14637 0.58998,0.29768 0.58005,0.1969 0.61138,6.20628 0.0157,3.01387 -0.008,5.65434 -0.0524,5.86771 -0.15444,0.73963 -0.34294,0.63737 -2.16779,-1.17609 l -1.63881,-1.62858 -2.45393,2.44178 c -2.54318,2.53057 -6.71373,6.4412 -7.58472,6.5513 -0.21337,0.027 -0.28194,0.0529 -0.49576,-0.0334 z"
         style="fill:#aad400;fill-opacity:1;stroke-width:1" />
      <text
         transform="matrix(0.73351595,-0.74360457,0.68158483,0.67233766,0,0)"
         id="text845-0-1-0-6"
         y="199.94147"
         x="-48.04623"
         style="font-style:normal;font-variant:normal;font-weight:bold;font-stretch:normal;font-size:3.80532527px;line-height:1.25;font-family:sans-serif;-inkscape-font-specification:'sans-serif, Bold';font-variant-ligatures:normal;font-variant-caps:normal;font-variant-numeric:normal;font-feature-settings:normal;text-align:start;letter-spacing:0px;word-spacing:0px;writing-mode:lr-tb;text-anchor:start;fill:#000000;fill-opacity:1;stroke:none;stroke-width:0.26458332"
         xml:space="preserve"><tspan
           style="font-style:normal;font-variant:normal;font-weight:bold;font-stretch:normal;font-size:4.19978046px;font-family:sans-serif;-inkscape-font-specification:'sans-serif, Bold';font-variant-ligatures:normal;font-variant-caps:normal;font-variant-numeric:normal;font-feature-settings:normal;text-align:start;writing-mode:lr-tb;text-anchor:start;fill:#ffffff;stroke-width:0.26458332"
           y="199.94147"
           x="-48.04623"
           sodipodi:role="line"
           id="tspan1096-8-3">Symlink</tspan></text>
    </g>
    <g
       id="g1378"
       transform="translate(-22.983789,119.91816)">
      <rect
         rx="8.2853565"
         ry="8.2853565"
         y="114.2579"
         x="74.269012"
         height="10.546561"
         width="30.373413"
         id="rect1217"
         style="fill:#aad400;fill-opacity:1;stroke:none;stroke-width:1;stroke-miterlimit:4;stroke-dasharray:none;stroke-dashoffset:0" />
      <text
         transform="matrix(1.0444819,-0.00713372,0.00653875,0.95736781,0,0)"
         id="text845-0-1-0-6-8"
         y="127.40952"
         x="72.790054"
         style="font-style:normal;font-variant:normal;font-weight:bold;font-stretch:normal;font-size:4.89974403px;line-height:1.25;font-family:sans-serif;-inkscape-font-specification:'sans-serif, Bold';font-variant-ligatures:normal;font-variant-caps:normal;font-variant-numeric:normal;font-feature-settings:normal;text-align:start;letter-spacing:0px;word-spacing:0px;writing-mode:lr-tb;text-anchor:start;fill:#000000;fill-opacity:1;stroke:none;stroke-width:0.26458332"
         xml:space="preserve"><tspan
           style="font-style:normal;font-variant:normal;font-weight:bold;font-stretch:normal;font-size:4.89974403px;font-family:sans-serif;-inkscape-font-specification:'sans-serif, Bold';font-variant-ligatures:normal;font-variant-caps:normal;font-variant-numeric:normal;font-feature-settings:normal;text-align:start;writing-mode:lr-tb;text-anchor:start;fill:#ffffff;stroke-width:0.26458332"
           y="127.40952"
           x="72.790054"
           sodipodi:role="line"
           id="tspan1096-8-3-5">Function</tspan></text>
    </g>
    <g
       id="g1384"
       transform="translate(-17.180458,61.562649)">
      <g
         style="stroke-width:2.01597834"
         transform="matrix(0.49603708,0,0,0.49603708,49.147528,20.598105)"
         id="g1282">
        <rect
           style="fill:#ff55dd;fill-opacity:1;stroke:none;stroke-width:2.01597834;stroke-miterlimit:4;stroke-dasharray:none;stroke-dashoffset:0"
           id="rect1217-6-5"
           width="51.476807"
           height="18.588943"
           x="25.777798"
           y="256.16772"
           ry="8.8903875"
           rx="8.8903561" />
        <text
           xml:space="preserve"
           style="font-style:normal;font-variant:normal;font-weight:bold;font-stretch:normal;font-size:9.87777805px;line-height:1.25;font-family:sans-serif;-inkscape-font-specification:'sans-serif, Bold';font-variant-ligatures:normal;font-variant-caps:normal;font-variant-numeric:normal;font-feature-settings:normal;text-align:start;letter-spacing:0px;word-spacing:0px;writing-mode:lr-tb;text-anchor:start;fill:#000000;fill-opacity:1;stroke:none;stroke-width:0.53339422"
           x="30.607265"
           y="281.16797"
           id="text845-0-1-0-6-8-1-9"
           transform="matrix(1.0444819,-0.00713372,0.00653875,0.95736781,0,0)"><tspan
             id="tspan1096-8-3-5-1-8"
             sodipodi:role="line"
             x="30.607265"
             y="281.16797"
             style="font-style:normal;font-variant:normal;font-weight:bold;font-stretch:normal;font-size:9.87777805px;font-family:sans-serif;-inkscape-font-specification:'sans-serif, Bold';font-variant-ligatures:normal;font-variant-caps:normal;font-variant-numeric:normal;font-feature-settings:normal;text-align:start;writing-mode:lr-tb;text-anchor:start;fill:#ffffff;stroke-width:0.53339422">String</tspan></text>
      </g>
    </g>
    <g
       style="stroke-width:7.19868803"
       id="g898"
       transform="matrix(0.13877493,0,0,0.13905362,165.18756,152.93316)">
      <path
         inkscape:connector-curvature="0"
         d="M -134.00096,197.50302 H 1.7719563 v 54.79025 H -134.00096 Z m 10.90201,99.97463 c -0.98957,-0.2464 -2.73182,-1.41595 -3.37623,-2.26643 -1.45615,-1.92176 -1.37659,-0.89322 -1.51856,-19.63312 l -0.13229,-17.46251 -3.175,-0.13346 c -2.71797,-0.11425 -3.38448,-0.23375 -4.63021,-0.83022 -1.71259,-0.82 -2.83549,-1.81803 -3.85433,-3.42571 -1.44066,-2.27328 -1.42874,-2.03127 -1.43321,-29.09096 -0.005,-27.45393 -0.0359,-26.87231 1.57746,-29.2173 1.02712,-1.49287 2.19468,-2.45743 3.95281,-3.26555 1.19057,-0.54725 1.96362,-0.68068 4.56406,-0.78778 l 3.13071,-0.12894 v -26.64455 c 0,-29.0981 -0.0509,-28.09957 1.53469,-30.10155 0.43847,-0.55362 1.37387,-1.30111 2.07866,-1.66111 l 1.28144,-0.65453 40.561326,-0.0686 40.56133,-0.0687 1.77231,1.78844 c 1.84149,1.85825 3.30153,3.4868 8.12651,9.06448 1.57354,1.81901 3.59849,4.14073 4.49989,5.15937 0.9014,1.01865 3.76786,4.29287 6.36993,7.27604 2.60205,2.98318 4.85935,5.54303 5.01623,5.68855 0.15687,0.14552 0.98932,1.09802 1.84991,2.11666 0.86058,1.01865 2.48981,2.88013 3.6205,4.13663 1.1307003,1.2565 2.2340803,2.71119 2.4519703,3.23265 0.32784,0.78464 0.39613,2.65454 0.39613,10.84587 v 9.89776 l 3.10886,0.11282 c 2.68917,0.0976 3.32316,0.21118 4.69635997,0.84132 1.76630003,0.81055 2.72417003,1.61852 3.86055003,3.2564 1.59209,2.29475 1.56381,1.76527 1.55927,29.18161 -0.005,27.47607 0.0273,26.89361 -1.60543,29.31859 -1.94705,2.89168 -4.30407003,4.00693 -8.66729,4.10097 l -2.82003,0.0608 -0.13229,17.46251 c -0.10801,14.25785 -0.20001,17.58388 -0.5013,18.12395 -0.83838,1.50281 -1.9699103,2.64333 -3.2605803,3.28649 l -1.3691,0.68227 -54.78295,-0.0307 c -30.13062,-0.0169 -55.021066,-0.09 -55.312106,-0.16245 z m 108.812046,-23.6024 c 0.0539,-12.19371 -0.002,-15.50585 -0.26458,-15.67252 -0.38336,-0.24338 -106.040976,-0.30165 -106.673746,-0.0588 -0.375,0.14391 -0.41851,1.7624 -0.41851,15.56632 0,8.47315 0.0797,15.4854 0.17703,15.58275 0.0974,0.0974 24.237286,0.14698 53.644266,0.11025 l 53.46725,-0.0668 z m -99.022466,-24.88479 c 9.56489,-1.01387 15.425106,-5.72858 16.282706,-13.09987 0.40198,-3.45512 -0.56123,-7.51391 -2.29216,-9.65877 -2.365196,-2.93083 -4.887076,-4.48822 -12.065746,-7.45127 -5.43053,-2.24149 -6.92135,-3.54739 -6.92135,-6.06287 0,-1.59839 1.00628,-2.99283 2.71889,-3.76765 2.64006,-1.19442 9.24591,-0.74727 12.91089,0.87392 0.6791,0.3004 1.32319,0.45423 1.4313,0.34183 0.1941,-0.20178 2.355256,-7.97986 2.355256,-8.47664 0,-0.34992 -3.786666,-1.57513 -6.433836,-2.08173 -3.31137,-0.6337 -8.73392,-0.55541 -11.65034,0.16821 -6.80568,1.68862 -10.89666,5.34391 -12.20859,10.90835 -0.48977,2.07732 -0.49148,3.29507 -0.008,5.57766 0.52167,2.46201 1.31743,3.96331 3.13457,5.91378 2.38435,2.5593 3.98511,3.47025 11.7933,6.71132 4.19461,1.74112 5.79336,3.1667 6.04387,5.38925 0.40306,3.57592 -2.45239,5.71565 -7.62748,5.71565 -3.5253,0 -8.33722,-1.09028 -11.08643,-2.51195 -0.71501,-0.36975 -0.79683,-0.36366 -1.03259,0.0769 -0.23156,0.43267 -2.14548,8.03295 -2.14548,8.51981 0,0.51788 4.26183,1.88043 7.80521,2.49543 2.13742,0.37097 3.20079,0.48569 5.82083,0.62797 0.43656,0.0237 1.86531,-0.0705 3.175,-0.2093 z m 100.522716,-0.68718 c 2.6509,-0.39241 7.4524003,-1.49375 8.5517703,-1.96156 l 0.59531,-0.25333 v -12.70567 -12.70566 h -9.1348503 -9.13484 l 0.0729,4.16718 0.0729,4.16718 3.70416,0.1323 3.70417,0.13229 v 5.00804 5.00805 l -0.79374,0.24906 c -1.25558,0.39397 -7.21261,0.35802 -8.86354,-0.0535 -6.36913,-1.58754 -10.30911,-6.71273 -10.74378,-13.97568 -0.29314,-4.89825 0.57429,-8.28939 2.92343,-11.42899 1.67978,-2.245 4.57463,-4.08558 7.72465,-4.91143 3.61359,-0.94739 10.34325,-0.68217 13.97568,0.55077 2.5630903,0.86999 2.7065203,0.8474 2.9275703,-0.46096 0.10194,-0.6033 0.52911,-2.2997 0.94931,-3.76976 1.06069,-3.71095 1.06415,-3.69109 -0.75739,-4.35235 -3.6025203,-1.30782 -10.0876403,-2.00982 -14.7926103,-1.60128 -14.094,1.22381 -23.06934,9.33625 -24.4489,22.09838 -1.03443,9.56923 2.12486,17.59807 8.88058,22.56863 2.88903,2.12563 7.15106,3.72644 11.24478,4.22354 1.38245,0.16787 2.8112,0.35369 3.175,0.41295 1.18549,0.19309 7.47697,-0.13996 10.16752,-0.53822 z m -52.15223,-0.70488 c 0.19564,-0.47294 2.27721,-6.5749 4.6257,-13.55989 2.3485,-6.985 5.87358,-17.45604 7.83352,-23.26898 1.95996,-5.81295 3.50436,-10.66474 3.43203,-10.78177 -0.0723,-0.11703 -2.67029,-0.21278 -5.77325,-0.21278 h -5.64175 l -0.70201,2.3151 c -0.38611,1.27331 -1.04175,3.4462 -1.45698,4.82865 -0.41523,1.38244 -1.11673,3.70416 -1.55888,5.15937 -0.44214,1.45521 -1.46977,4.96755 -2.28362,7.80521 -0.81384,2.83765 -1.70819,5.93327 -1.98744,6.87916 -0.66271,2.24475 -2.39218,9.57855 -2.39218,10.14399 0,0.24164 -0.10995,0.43935 -0.24434,0.43935 -0.13439,0 -0.56295,-1.39899 -0.95237,-3.10886 -1.15602,-5.07594 -3.08996,-12.411 -4.76107,-18.05781 -0.53831,-1.81901 -1.18939,-4.0812 -1.44683,-5.02708 -0.89702,-3.29577 -2.931,-10.19071 -3.18059,-10.78177 -0.24983,-0.59166 -0.28703,-0.59531 -6.06226,-0.59531 -3.196,0 -5.86076,0.0893 -5.92171,0.19843 -0.0609,0.10914 0.39428,1.74625 1.01162,3.63802 1.7452,5.34799 5.46824,16.92689 7.27376,22.62187 0.89964,2.83766 1.85541,5.81422 2.12392,6.61458 0.26851,0.80037 1.51229,4.64013 2.76394,8.53281 l 2.27574,7.07761 h 6.33467 6.33467 z m 50.65366,-64.42603 -0.07,-8.13594 -14.94896,-0.13229 c -15.91972,-0.14088 -15.5537,-0.10906 -16.43113,-1.42824 -0.30377,-0.45671 -0.39356,-3.63078 -0.5022,-17.75405 l -0.1323,-17.19792 -37.04168,-0.0725 c -20.372916,-0.0399 -37.309556,-0.008 -37.636976,0.0712 l -0.59531,0.14367 v 26.321 26.321 h 53.714236 53.71424 z"
         style="fill:#5555ff;fill-opacity:1;stroke:#5555ff;stroke-width:7.19868851;stroke-miterlimit:4;stroke-dasharray:none;stroke-dashoffset:0;stroke-opacity:1"
         id="rect839-9" />
      <text
         id="text845-0"
         y="236.70999"
         x="-113.73538"
         style="font-style:normal;font-variant:normal;font-weight:bold;font-stretch:normal;font-size:39.85683441px;line-height:1.25;font-family:sans-serif;-inkscape-font-specification:'sans-serif, Bold';font-variant-ligatures:normal;font-variant-caps:normal;font-variant-numeric:normal;font-feature-settings:normal;text-align:start;letter-spacing:0px;word-spacing:0px;writing-mode:lr-tb;text-anchor:start;fill:#000000;fill-opacity:1;stroke:none;stroke-width:1.90465283"
         xml:space="preserve"><tspan
           style="font-style:normal;font-variant:normal;font-weight:bold;font-stretch:normal;font-size:39.85683441px;font-family:sans-serif;-inkscape-font-specification:'sans-serif, Bold';font-variant-ligatures:normal;font-variant-caps:normal;font-variant-numeric:normal;font-feature-settings:normal;text-align:start;writing-mode:lr-tb;text-anchor:start;fill:#ffffff;stroke-width:1.90465283"
           y="236.70999"
           x="-113.73538"
           id="tspan843-9"
           sodipodi:role="line">Jinja</tspan></text>
    </g>
  </g>
</svg>
